<?xml version="1.0" standalone="no"?>
<!DOCTYPE svg PUBLIC "-//W3C//DTD SVG 20010904//EN"
 "http://www.w3.org/TR/2001/REC-SVG-20010904/DTD/svg10.dtd">
<svg version="1.0" xmlns="http://www.w3.org/2000/svg"
 width="512.000000pt" height="512.000000pt" viewBox="0 0 512.000000 512.000000"
 preserveAspectRatio="xMidYMid meet">
<metadata>
Created by potrace 1.16, written by Peter Selinger 2001-2019
</metadata>
<g transform="translate(0.000000,512.000000) scale(0.100000,-0.100000)"
fill="#000000" stroke="none">
<path d="M2480 3429 c-93 -11 -118 -21 -31 -13 36 4 117 10 180 14 l116 7 -95
0 c-52 0 -129 -3 -170 -8z"/>
<path d="M3275 3394 c-16 -8 -21 -12 -10 -8 45 13 113 16 131 6 17 -10 17 -11
2 -12 -38 0 -68 -23 -77 -59 -5 -20 -12 -118 -15 -219 -5 -144 -3 -183 7 -180
9 4 13 56 17 200 5 213 8 221 65 237 62 17 143 -9 232 -72 60 -43 47 -45 -16
-3 -60 41 -107 56 -173 56 -38 0 -50 -5 -67 -26 -12 -15 -21 -38 -20 -53 0
-25 1 -25 9 -5 13 34 50 54 97 54 57 0 89 -14 107 -47 8 -15 15 -22 16 -15 0
25 21 0 55 -68 51 -102 50 -104 -41 -97 -70 6 -77 5 -99 -17 -13 -13 -30 -46
-38 -73 -10 -35 -30 -65 -66 -101 -30 -31 -45 -52 -36 -52 8 0 15 5 15 10 0 6
13 10 29 10 23 0 38 -11 71 -51 29 -34 46 -47 53 -40 7 7 1 26 -20 59 l-31 49
82 5 c82 6 139 25 149 51 3 8 23 17 45 20 21 4 55 18 75 31 l37 25 14 -21 c8
-12 13 -24 11 -28 -3 -4 29 -13 71 -19 96 -16 131 -45 169 -139 37 -92 51
-218 38 -352 l-10 -105 -2 131 c-1 150 -12 197 -45 192 -48 -7 -91 -130 -125
-359 -10 -69 -25 -137 -32 -150 l-14 -24 -3 28 c-2 16 2 35 9 43 16 19 -9 19
-84 -1 -76 -20 -79 -19 -72 8 5 19 3 18 -12 -5 -18 -28 -39 -41 -128 -76 -27
-12 -99 -41 -160 -66 -60 -25 -112 -46 -116 -46 -3 0 -6 48 -6 108 -1 207 -77
402 -159 402 -27 0 -89 -51 -109 -90 l-14 -27 42 4 c53 6 100 -24 138 -87 48
-80 48 -81 -36 -144 -41 -31 -82 -59 -89 -62 -25 -10 -28 33 -6 98 12 35 24
87 27 117 l6 53 -34 -7 c-19 -4 -37 -9 -40 -11 -3 -2 -9 -39 -12 -82 -3 -43
-9 -86 -13 -95 -5 -15 -9 -14 -26 8 -25 32 -34 32 -41 -2 -4 -22 0 -33 20 -49
30 -24 18 -39 -19 -25 -24 9 -25 8 -41 -78 -29 -151 -43 -189 -75 -195 -84
-18 -246 -28 -569 -33 -376 -6 -710 6 -943 33 -165 19 -408 83 -422 111 -7 14
19 77 26 64 13 -21 88 -53 182 -77 165 -41 397 -58 809 -59 429 0 673 19 709
55 17 17 14 109 -4 121 -9 6 -91 8 -215 5 -148 -4 -186 -3 -145 5 30 5 129 8
220 7 l165 -3 30 -94 31 -94 27 32 c32 39 34 77 7 131 -34 67 -53 74 -193 67
-67 -3 -187 -15 -267 -27 -118 -17 -198 -21 -425 -22 -436 -2 -728 25 -885 81
l-75 27 -3 77 c-2 62 0 77 12 77 18 0 157 -56 166 -67 3 -4 26 -34 49 -66 24
-32 48 -60 53 -63 5 -4 -11 22 -36 56 -41 56 -50 72 -48 91 1 3 -5 6 -13 6 -8
0 -52 15 -99 33 l-86 33 1 56 c1 31 4 44 6 29 5 -33 15 -41 83 -68 30 -11 65
-33 78 -48 23 -26 23 -26 17 -4 l-7 23 34 -16 33 -17 -37 35 c-21 19 -38 44
-38 55 0 11 -3 29 -6 39 -4 10 8 -4 26 -30 40 -59 113 -133 150 -152 38 -20
220 -34 466 -37 l201 -3 56 38 c87 60 167 149 167 186 0 42 -29 68 -82 75 -24
3 -194 8 -378 11 -184 3 -385 8 -445 11 -109 7 -111 6 -142 -20 -23 -20 -33
-37 -35 -64 l-3 -37 -20 31 c-11 17 -25 29 -32 27 -19 -7 -71 50 -78 85 -7 36
4 41 45 17 35 -20 42 -18 28 5 -20 31 0 38 82 30 251 -27 841 -40 975 -21 28
4 -67 5 -210 3 -239 -4 -709 16 -800 34 -40 8 -105 42 -105 55 0 18 27 63 52
86 31 29 83 50 171 68 39 9 102 27 140 41 80 31 174 56 161 45 -5 -5 -43 -23
-84 -40 -68 -28 -164 -83 -115 -66 104 37 129 44 132 41 3 -2 -3 -18 -11 -35
-27 -52 -19 -68 13 -24 39 53 100 104 172 143 57 30 70 33 212 42 107 7 243 7
462 -1 171 -6 333 -11 360 -12 l50 0 -30 -14 -30 -13 30 -1 c17 -1 130 -8 252
-16 122 -8 244 -12 272 -8 58 7 51 -14 76 217 20 172 17 177 -82 200 -232 52
-594 56 -1028 10 l-50 -5 35 20 c48 28 12 27 -43 0 -57 -29 -135 -91 -238
-187 -81 -77 -86 -79 -98 -60 -11 18 -20 20 -74 15 -50 -5 -66 -10 -84 -32
-23 -26 -32 -85 -13 -85 6 0 10 -4 10 -8 0 -4 -44 -18 -97 -30 -54 -12 -121
-33 -150 -46 -28 -14 -89 -32 -135 -40 -46 -9 -111 -30 -146 -47 -103 -50
-134 -115 -156 -329 -12 -116 -12 -509 0 -567 3 -17 26 -34 84 -63 44 -22 80
-43 80 -45 0 -3 -24 -16 -52 -29 l-53 -23 60 -7 c114 -13 210 -28 263 -40 l54
-12 -92 -13 c-51 -7 -88 -17 -84 -21 20 -18 388 -54 732 -72 325 -16 754 6
824 43 17 9 17 11 1 37 -9 15 -1 9 20 -15 55 -61 105 -77 225 -71 135 8 174
22 245 87 54 50 70 59 185 97 70 23 170 61 222 85 l95 44 166 5 c127 4 170 9
184 20 43 35 85 189 85 308 0 20 6 49 14 64 38 73 49 290 20 402 -22 87 -70
182 -103 205 -15 11 -63 30 -107 41 -43 12 -82 24 -85 28 -4 4 -41 52 -82 107
-101 135 -181 214 -247 246 -99 48 -226 63 -285 33z m-211 -90 c54 -9 110 -21
124 -27 23 -10 24 -15 18 -64 -8 -69 -33 -131 -58 -144 -17 -9 -25 -6 -50 18
-28 27 -33 28 -146 31 l-117 4 -36 39 c-40 43 -79 51 -110 23 -10 -9 -23 -13
-28 -9 -17 10 -13 21 14 33 27 13 34 42 10 42 -18 0 -18 5 -5 31 7 12 21 19
38 19 16 0 32 4 38 9 21 21 152 19 308 -5z m-716 -39 c23 -9 42 -24 42 -32 0
-7 -17 -37 -38 -66 -21 -29 -50 -71 -63 -94 l-24 -43 -218 0 c-256 0 -247 -11
-107 128 123 122 149 135 270 129 58 -3 112 -11 138 -22z m192 -68 c0 -4 -17
-24 -39 -45 -30 -29 -40 -47 -45 -84 l-7 -48 -61 0 c-47 0 -58 3 -51 13 6 6
34 44 63 82 100 131 92 124 117 106 12 -9 23 -20 23 -24z m1219 -86 c67 -90
67 -101 7 -129 -33 -16 -52 -20 -59 -13 -7 7 5 14 37 22 31 8 46 17 46 28 0
18 -61 124 -93 161 -14 15 -15 19 -5 11 10 -7 40 -43 67 -80z m-2040 0 c11 -7
10 -14 -5 -37 -34 -53 -63 -69 -79 -44 -3 6 3 10 14 10 12 0 21 5 21 10 0 6
-16 10 -35 10 -32 0 -35 2 -26 19 6 10 28 23 48 29 50 13 46 13 62 3z m1904
-63 c22 -11 45 -17 53 -14 7 3 16 1 19 -4 4 -6 3 -10 -2 -10 -55 -3 -157 -20
-164 -27 -6 -6 18 -6 63 -1 40 5 81 7 93 6 17 -3 16 -6 -11 -20 -42 -23 -163
-43 -176 -30 -13 13 -3 59 23 101 21 36 30 36 102 -1z m-1913 -538 l395 -10
24 -27 24 -27 -39 -34 c-77 -67 -98 -72 -306 -72 -212 0 -525 16 -580 31 -44
11 -110 83 -106 114 5 33 45 46 123 40 39 -3 248 -10 465 -15z m2327 -82 c-3
-7 -5 -2 -5 12 0 14 2 19 5 13 2 -7 2 -19 0 -25z m83 3 c0 -20 -49 -86 -57
-77 -5 5 46 96 53 96 2 0 4 -9 4 -19z m-93 -143 c-2 -13 -4 -5 -4 17 -1 22 1
32 4 23 2 -10 2 -28 0 -40z m103 12 c0 -14 -39 -32 -52 -24 -7 4 -2 12 13 20
29 16 39 17 39 4z m-109 -101 c-5 -26 -9 -34 -10 -19 -1 27 9 73 15 67 2 -2 0
-23 -5 -48z m80 -83 c-17 -76 -40 -95 -62 -53 -11 20 -11 21 4 9 22 -19 35 -8
47 39 8 29 8 50 1 71 -15 43 -13 48 6 14 13 -25 14 -38 4 -80z m-381 -13
c-100 -59 -369 -188 -376 -180 -3 3 -2 16 1 29 5 21 36 37 228 115 122 50 227
91 232 92 6 0 -33 -25 -85 -56z m-2640 -11 c163 -53 418 -76 820 -76 162 0
398 6 524 13 146 8 232 9 238 3 42 -42 -884 -55 -1279 -18 -172 16 -315 44
-379 72 -21 9 -42 17 -45 16 -4 -1 -5 7 -2 18 5 17 8 18 32 6 14 -7 55 -23 91
-34z m2228 -45 c-4 -72 -11 -106 -32 -154 -55 -122 -146 -173 -220 -122 -40
27 -86 94 -86 124 0 13 10 3 30 -32 27 -47 69 -86 70 -66 1 4 5 28 10 53 5 28
5 63 -2 95 l-11 49 -23 -46 c-13 -26 -29 -50 -34 -53 -9 -5 40 92 56 114 2 2
11 -14 20 -35 9 -22 20 -46 24 -54 4 -8 -1 -41 -11 -74 -21 -68 -15 -80 36
-70 45 9 73 31 106 82 41 64 38 77 -25 112 -50 28 -74 55 -61 68 3 3 32 -15
64 -41 56 -43 59 -44 65 -24 3 12 6 44 6 71 0 45 -1 48 -22 42 -13 -3 -43 -9
-68 -12 l-45 -5 52 19 c28 10 62 26 75 35 12 9 25 16 27 16 2 1 2 -41 -1 -92z
m719 61 c-3 -8 -6 -5 -6 6 -1 11 2 17 5 13 3 -3 4 -12 1 -19z m-948 -37 c-9
-24 -14 -29 -20 -19 -5 7 -8 20 -8 28 0 10 3 8 9 -5 8 -20 9 -20 9 1 1 11 4
24 8 27 12 13 13 0 2 -32z m-39 -31 c0 -5 -13 -16 -30 -25 -35 -18 -41 -4 -8
19 26 18 38 20 38 6z m733 -34 l16 -24 -57 -7 c-56 -7 -169 -45 -311 -104 -41
-17 -76 -29 -78 -27 -2 2 40 22 94 45 54 23 145 64 203 91 58 26 108 49 111
49 4 1 14 -10 22 -23z m-644 -33 c5 -21 13 -51 16 -68 l6 -30 -14 25 c-14 25
-32 110 -23 110 3 0 10 -17 15 -37z m-1772 -127 c57 -7 106 -16 110 -20 5 -5
-14 -6 -42 -2 -27 3 -85 8 -127 12 -43 3 -78 10 -78 15 0 11 12 11 137 -5z
m476 -90 c208 -22 466 -41 662 -49 39 -2 -58 -4 -215 -5 -355 -2 -684 20 -731
49 -11 7 -10 11 6 23 11 9 26 13 33 11 7 -3 118 -16 245 -29z"/>
<path d="M1170 2468 c0 -24 8 -42 25 -58 21 -20 40 -24 132 -31 153 -12 621
-27 663 -21 82 10 137 67 96 101 -9 7 -132 14 -367 21 -195 5 -398 13 -451 16
l-98 7 0 -35z"/>
<path d="M3340 3076 l0 -144 31 -4 32 -5 -6 62 c-6 57 -4 64 18 85 29 27 31
49 10 95 -14 29 -50 55 -75 55 -6 0 -10 -59 -10 -144z"/>
<path d="M2190 2909 c-242 -23 -471 -105 -580 -208 -55 -52 -69 -86 -22 -55
120 79 283 154 400 184 43 10 166 31 276 45 276 36 300 43 141 43 -71 -1 -168
-4 -215 -9z"/>
<path d="M3225 2890 c-11 -4 -71 -15 -132 -25 -137 -20 -339 -71 -493 -124
-117 -40 -139 -53 -47 -26 46 13 547 112 655 130 36 6 42 10 42 31 0 13 -1 24
-2 23 -2 0 -12 -4 -23 -9z"/>
<path d="M2796 2864 c-145 -27 -337 -74 -436 -106 -77 -24 -251 -97 -265 -111
-16 -16 34 -2 290 82 132 44 290 91 350 105 61 14 137 32 170 40 97 22 30 16
-109 -10z"/>
<path d="M3308 2833 c7 -3 16 -2 19 1 4 3 -2 6 -13 5 -11 0 -14 -3 -6 -6z"/>
<path d="M3268 2823 c7 -3 16 -2 19 1 4 3 -2 6 -13 5 -11 0 -14 -3 -6 -6z"/>
<path d="M3830 2814 c-36 -8 -74 -18 -85 -23 -11 -5 -38 -12 -60 -16 -59 -9
-354 -90 -397 -108 -46 -19 -47 -34 -8 -72 29 -28 32 -29 75 -17 121 32 490
190 545 232 29 23 21 23 -70 4z m-22 -29 c-15 -9 -34 -12 -45 -8 -15 6 -13 9
12 14 50 11 61 9 33 -6z"/>
<path d="M3178 2803 c7 -3 16 -2 19 1 4 3 -2 6 -13 5 -11 0 -14 -3 -6 -6z"/>
<path d="M3128 2793 c7 -3 16 -2 19 1 4 3 -2 6 -13 5 -11 0 -14 -3 -6 -6z"/>
<path d="M3851 2734 c0 -11 3 -14 6 -6 3 7 2 16 -1 19 -3 4 -6 -2 -5 -13z"/>
<path d="M2405 2680 c-27 -10 -43 -18 -35 -18 8 0 38 8 65 18 28 10 43 18 35
18 -8 0 -37 -8 -65 -18z"/>
<path d="M2275 2640 c-13 -5 -14 -9 -5 -9 8 0 24 4 35 9 13 5 14 9 5 9 -8 0
-24 -4 -35 -9z"/>
<path d="M2218 2623 c6 -2 18 -2 25 0 6 3 1 5 -13 5 -14 0 -19 -2 -12 -5z"/>
<path d="M2153 2613 c9 -2 25 -2 35 0 9 3 1 5 -18 5 -19 0 -27 -2 -17 -5z"/>
<path d="M2836 2603 c-1 -1 -55 -9 -121 -17 -354 -44 -521 -68 -535 -77 -12
-8 -11 -9 5 -5 11 2 54 7 95 11 l75 6 -35 -27 c-19 -15 -63 -57 -98 -93 l-63
-66 32 -5 32 -5 -79 -74 c-95 -88 -129 -115 -180 -141 -22 -11 -33 -19 -26
-20 31 -1 86 34 193 120 63 51 128 98 144 105 17 7 95 18 175 24 194 16 365
39 422 56 55 16 133 66 148 96 14 26 6 49 -29 83 -25 24 -38 28 -91 29 -34 1
-63 1 -64 0z m102 -35 c21 -21 13 -38 -17 -38 -17 0 -32 -4 -36 -9 -8 -14 30
-32 49 -25 9 3 16 2 16 -3 0 -13 -22 -33 -37 -33 -16 0 -54 41 -47 52 3 4 -14
8 -38 8 l-44 0 4 -34 c7 -59 -55 -99 -90 -58 -23 26 -29 51 -18 73 10 18 7 19
-67 13 -108 -8 -109 -8 -79 -45 31 -37 33 -49 6 -49 -11 0 -20 7 -20 15 0 8
-5 26 -12 40 -8 19 -19 25 -42 25 -48 0 -60 -12 -49 -46 8 -24 16 -29 41 -29
23 0 28 -3 20 -12 -26 -32 -68 -8 -78 43 l-6 39 -23 -37 c-23 -38 -41 -49 -41
-25 0 21 38 75 57 81 18 5 283 38 438 55 44 5 85 9 91 10 5 0 15 -4 22 -11z"/>
<path d="M2706 2504 c-11 -28 -7 -50 12 -67 25 -23 42 -4 42 45 0 33 -3 38
-24 38 -13 0 -27 -7 -30 -16z"/>
<path d="M970 2551 c0 -12 33 -38 58 -45 40 -13 25 20 -18 37 -22 8 -40 12
-40 8z"/>
<path d="M3831 2390 c-24 -100 -39 -120 -121 -164 -41 -22 -108 -55 -150 -73
-41 -18 -69 -33 -62 -33 8 0 73 27 145 61 73 33 137 61 144 62 14 0 66 158 61
184 -2 10 -9 -7 -17 -37z"/>
<path d="M3175 2333 c-3 -27 -17 -78 -29 -115 -16 -45 -19 -68 -12 -68 15 0
146 107 146 119 0 15 -59 90 -79 101 -18 9 -20 6 -26 -37z m45 -67 c0 -2 -8
-10 -17 -17 -16 -13 -17 -12 -4 4 13 16 21 21 21 13z"/>
<path d="M3038 2313 c-22 -39 -23 -67 -3 -83 23 -19 26 -9 23 56 l-3 59 -17
-32z"/>
<path d="M3441 2284 c0 -11 3 -14 6 -6 3 7 2 16 -1 19 -3 4 -6 -2 -5 -13z"/>
<path d="M3441 2184 c0 -11 3 -14 6 -6 3 7 2 16 -1 19 -3 4 -6 -2 -5 -13z"/>
</g>
</svg>